<?xml version="1.0" encoding="iso-8859-1"?>
<!-- Generator: Adobe Illustrator 18.0.0, SVG Export Plug-In . SVG Version: 6.00 Build 0)  -->
<!DOCTYPE svg PUBLIC "-//W3C//DTD SVG 1.1//EN" "http://www.w3.org/Graphics/SVG/1.1/DTD/svg11.dtd">
<svg version="1.1" id="Capa_1" xmlns="http://www.w3.org/2000/svg" xmlns:xlink="http://www.w3.org/1999/xlink" x="0px" y="0px"
	 viewBox="0 0 137.797 137.797" style="enable-background:new 0 0 137.797 137.797;" xml:space="preserve">
<g>
	<linearGradient id="SVGID_1_" gradientUnits="userSpaceOnUse" x1="0.001" y1="68.8985" x2="137.7959" y2="68.8985">
		<stop  offset="0" style="stop-color:#6EC7DB"/>
		<stop  offset="1" style="stop-color:#30AFCC"/>
	</linearGradient>
	<circle style="fill:url(#SVGID_1_);" cx="68.898" cy="68.899" r="68.897"/>
	<g>
		<g>
			<circle style="fill:#FFE100;" cx="68.898" cy="68.898" r="42.414"/>
		</g>
		<g>
			<path style="fill:#F98B00;" d="M123.218,68.87c-0.004-3.751-9.016-6.221-9.625-9.192c-0.609-2.969,6.719-8.699,5.345-11.949
				c-1.377-3.248-10.576-1.934-12.22-4.36c-1.639-2.428,3.027-10.442,0.569-12.898c-2.458-2.457-10.471,2.219-12.897,0.581
				c-2.43-1.639-1.125-10.839-4.376-12.213c-3.248-1.371-8.973,5.962-11.942,5.357c-2.972-0.607-5.451-9.615-9.201-9.613
				c-3.749,0.002-6.221,9.013-9.19,9.622c-2.971,0.609-8.701-6.718-11.951-5.342c-3.248,1.375-1.935,10.576-4.359,12.215
				c-2.428,1.643-10.444-3.024-12.9-0.566c-2.456,2.459,2.219,10.47,0.581,12.896c-1.639,2.429-10.841,1.125-12.211,4.375
				c-1.375,3.251,5.961,8.975,5.354,11.944c-0.606,2.972-9.614,5.451-9.612,9.201c0,3.75,9.01,6.221,9.622,9.19
				c0.609,2.97-6.721,8.701-5.341,11.95c1.374,3.248,10.574,1.935,12.215,4.36c1.641,2.427-3.025,10.443-0.567,12.898
				c2.458,2.457,10.469-2.219,12.898-0.581c2.426,1.64,1.123,10.841,4.373,12.212c3.25,1.374,8.973-5.961,11.944-5.354
				c2.971,0.605,5.45,9.613,9.2,9.612c3.75-0.002,6.221-9.015,9.191-9.623c2.971-0.609,8.701,6.719,11.949,5.344
				c3.25-1.377,1.934-10.576,4.361-12.218c2.425-1.641,10.441,3.026,12.899,0.567c2.456-2.459-2.22-10.47-0.581-12.898
				c1.639-2.427,10.841-1.124,12.212-4.373c1.372-3.25-5.962-8.976-5.355-11.944C114.209,75.101,123.218,72.618,123.218,68.87z
				 M68.92,109.671c-22.518,0.011-40.783-18.233-40.793-40.751c-0.014-22.52,18.231-40.783,40.75-40.795
				c22.519-0.011,40.783,18.233,40.794,40.753C109.684,91.395,91.438,109.658,68.92,109.671z"/>
		</g>
	</g>
</g>
<g>
</g>
<g>
</g>
<g>
</g>
<g>
</g>
<g>
</g>
<g>
</g>
<g>
</g>
<g>
</g>
<g>
</g>
<g>
</g>
<g>
</g>
<g>
</g>
<g>
</g>
<g>
</g>
<g>
</g>
</svg>
